<?xml version="1.0" encoding="UTF-8"?><svg id="Layer_2" xmlns="http://www.w3.org/2000/svg" xmlns:xlink="http://www.w3.org/1999/xlink" viewBox="0 0 255.12 200.4"><defs><style>.cls-1{fill:none;}.cls-2{clip-path:url(#clippath);}.cls-3{fill:#ffd103;}.cls-4{fill:#36333b;}</style><clipPath id="clippath"><path class="cls-1" d="m42.87,57.81C18.79,60.25,0,80.57,0,105.29c0,26.36,21.37,47.73,47.73,47.73l-4.86-95.21Z"/></clipPath></defs><g id="Layer_1-2"><polygon class="cls-4" points="109.04 153.02 159.48 153.02 140.96 112.24 109.04 112.24 109.04 153.02"/><path class="cls-4" d="m159.78,79.45c0-6.87-4.84-9.91-14.2-9.91h-36.53v19.77h36.53c9.37,0,14.2-2.99,14.2-9.86Z"/><path class="cls-4" d="m216.15,53.09C211.34,23,185.27,0,153.82,0c-19.2,0-36.39,8.58-47.97,22.11-5.61-2.52-11.82-3.93-18.37-3.93-23.02,0-41.99,17.31-44.62,39.62C18.79,60.25,0,80.57,0,105.29c0,26.36,21.37,47.73,47.73,47.73h37.2V45.03h59.27c26.13,0,39.51,16.58,39.51,35.67,0,13.3-6.38,24.88-18.98,31.13l19.08,41.18,26.37-.33c25.29-2.84,44.94-24.28,44.94-50.32,0-23.95-16.63-44-38.97-49.28Z"/><g class="cls-2"><rect class="cls-3" x="0" y="43.11" width="42.54" height="119.37"/></g><path class="cls-4" d="m49.61,183.53c-.03-2.08.34-4.02,1.08-5.85.75-1.82,1.78-3.38,3.08-4.67,1.31-1.29,2.89-2.3,4.74-3.04,1.85-.74,3.82-1.09,5.91-1.06,3.35,0,6.24.88,8.67,2.64,2.43,1.76,3.96,4.09,4.59,6.99l-6.54,1.78c-.45-1.68-1.26-2.97-2.42-3.87s-2.6-1.35-4.31-1.35c-2.32,0-4.19.78-5.62,2.33-1.42,1.55-2.14,3.59-2.14,6.1s.71,4.55,2.14,6.1c1.42,1.55,3.3,2.33,5.62,2.33,1.78,0,3.27-.5,4.47-1.49,1.2-.99,2-2.42,2.42-4.29l6.61,1.62c-.39,2.12-1.21,3.96-2.47,5.53-1.26,1.57-2.83,2.77-4.73,3.59-1.9.82-4,1.23-6.31,1.23-2.09.03-4.06-.33-5.91-1.06-1.85-.74-3.43-1.75-4.74-3.04-1.31-1.29-2.34-2.85-3.08-4.67-.75-1.82-1.11-3.77-1.08-5.85Z"/><path class="cls-4" d="m84.28,169.66h7.06v21.56h14.14v6.17h-21.2v-27.73Z"/><path class="cls-4" d="m148.16,186.7v-17.04h7.04v16.52c0,1.97.48,3.43,1.45,4.37.97.94,2.45,1.41,4.45,1.41s3.45-.47,4.42-1.41c.97-.94,1.46-2.4,1.46-4.37v-16.52h7.04v17.04c0,3.66-1.12,6.49-3.37,8.47-2.25,1.99-5.43,2.98-9.54,2.98s-7.3-.99-9.55-2.98c-2.26-1.99-3.38-4.81-3.38-8.47Z"/><path class="cls-4" d="m179.36,169.66h12.13c2.82,0,5.28.53,7.38,1.59,2.1,1.06,3.73,2.63,4.89,4.73,1.17,2.1,1.75,4.61,1.75,7.55,0,4.55-1.27,8-3.81,10.35-2.54,2.35-5.97,3.52-10.29,3.52h-12.05v-27.73Zm11.56,21.6c2.54,0,4.43-.62,5.67-1.87,1.24-1.24,1.86-3.2,1.86-5.87,0-5.14-2.51-7.72-7.52-7.72h-4.51v15.45h4.51Z"/><path class="cls-4" d="m142.53,180.89l-2.48-.21c-.17-.01-.31-.13-.35-.29-.32-1.21-.8-2.38-1.43-3.46-.08-.15-.07-.33.04-.46l1.61-1.9c-1.15-1.68-2.59-3.11-4.26-4.26l-1.9,1.61c-.13.11-.31.12-.46.04-1.08-.63-2.25-1.12-3.46-1.43-.16-.04-.28-.18-.3-.35l-.21-2.48c-1.98-.36-4.06-.36-6.03,0l-.21,2.48c-.01.17-.13.31-.3.35-.67.18-1.33.4-1.96.68,0,0-.02,0-.03.01-.5.22-.99.47-1.47.74-.15.09-.33.07-.46-.04l-1.9-1.61c-1.68,1.15-3.11,2.59-4.26,4.26l1.61,1.9c.11.13.12.31.04.46-.27.45-.5.92-.71,1.4-.29.67-.53,1.36-.72,2.06-.04.16-.18.28-.35.29l-2.48.21c-.09.47-.15.95-.2,1.43,0,.02,0,.04,0,.06-.05.51-.07,1.02-.07,1.53,0,1.02.09,2.03.28,3.02l2.48.21c.17.01.31.13.35.3.32,1.21.8,2.38,1.43,3.46.09.15.07.33-.04.46l-1.61,1.9c1.15,1.68,2.59,3.11,4.26,4.26l1.9-1.61c.13-.11.31-.12.46-.04,1.08.63,2.25,1.12,3.46,1.43.16.04.28.18.3.35l.21,2.48c1.97.36,4.05.36,6.03,0l.21-2.48c.01-.17.13-.31.3-.35,1.21-.32,2.37-.8,3.46-1.43.15-.08.33-.07.46.04l1.9,1.61c1.68-1.16,3.11-2.59,4.26-4.27l-1.61-1.9c-.11-.13-.12-.31-.04-.46.63-1.08,1.12-2.25,1.43-3.46.04-.16.18-.28.35-.3l2.48-.21c.18-.99.28-2,.28-3.02s-.09-2.03-.28-3.01Zm-16.22,11.37c-4.61,0-8.36-3.75-8.36-8.36s3.75-8.36,8.36-8.36,8.36,3.75,8.36,8.36-3.75,8.36-8.36,8.36Z"/></g></svg>