<?xml version="1.0" encoding="UTF-8"?> <svg xmlns="http://www.w3.org/2000/svg" viewBox="0 0 137.83 137.83"><defs><style>.cls-1{fill:none;}</style></defs><g id="Layer_2" data-name="Layer 2"><g id="Layer_1-2" data-name="Layer 1"><path d="M110.11,75.9v-14H96.35v5H86.25V59.35H98.18V48.5h5v-14H89.37v14h5v6.8l-8,.1v-4H71V41.51h5V27.71H62v13.8h5v9.93H51.57v4.05H43.68v-7h5v-14h-14v14h5V59.35H51.57v7.54H41.66v-5H27.71v14H41.66v-5h9.91v7.54H39.64V89.33h-5v13.79h14V89.33h-5v-7h7.89v4H67v9.93H62v13.79H76V96.32H71V86.39H86.25V82.52l8.08,0v6.84h-5v13.79h13.77V89.33h-5V78.48H86.25V70.94h10.1v5ZM100.2,66h6.06v5.89H100.2Zm-7-21.52V38.57h6v5.88Zm-54.51,0V38.57h5.87v5.88Zm-1.1,27.41H31.75V66h5.87Zm7,21.33v6.07H38.72V93.19ZM66.07,37.65,66,31.58h6v6.07ZM72,100.33l0,5.92H66.07L66,100.38Zm10.42-18H55.61V55.49H82.4Zm16.82,11,.06,6h-6V93.38Z"></path><path d="M66.81,78.29l3.67,1.47q2.2-6.53,4.4-13.05l-6.24.18c.8-2.39,2.55-7.66,2.55-7.66l-3.83-1.17S64.42,66.77,63,71.12l6.42-.18Z"></path></g><g id="Layer_8" data-name="Layer 8"><rect class="cls-1" width="137.83" height="137.83"></rect></g></g></svg> 